# xmcd
#
# Track frame offsets:
#        150
#        21792
#        45125
#        64512
#        89325
#        110412
#        133125
#        152575
#        171212
#        196125
#
# Disc length: 2859 seconds
#
# Revision: 0
# Processed by: cddbd v1.5.1PL0 Copyright (c) Steve Scherf et al.
# Submitted via: ExactAudioCopy v0.95a5
#
DISCID=750b290a
DTITLE=Keiko Matsui - CHERRY BLOSSOM
DYEAR=1992
DGENRE=Fusion
TTITLE0=RAINY SEAON
TTITLE1=SAIL SOUTH
TTITLE2=WALKING ON THE BIDGE
TTITLE3=CRESCENDO
TTITLE4=SHE PRAYS TO THE WIND
TTITLE5=CHERRY BLOSSOM
TTITLE6=FRONTIER
TTITLE7=FOOT STEPS
TTITLE8=DAWN OPENER
TTITLE9=HANDS ACROSS AN OCEAN
EXTD=
EXTT0=
EXTT1=
EXTT2=
EXTT3=
EXTT4=
EXTT5=
EXTT6=
EXTT7=
EXTT8=
EXTT9=
PLAYORDER=
